<?xml version="1.0" encoding="UTF-8" standalone="no"?>
<!DOCTYPE svg PUBLIC "-//W3C//DTD SVG 1.1//EN" "http://www.w3.org/Graphics/SVG/1.1/DTD/svg11.dtd">
<svg width="100%" height="100%" viewBox="0 0 1024 1024" version="1.1" xmlns="http://www.w3.org/2000/svg" xmlns:xlink="http://www.w3.org/1999/xlink" xml:space="preserve" xmlns:serif="http://www.serif.com/" style="fill-rule:evenodd;clip-rule:evenodd;stroke-linecap:round;stroke-linejoin:round;stroke-miterlimit:1.5;">
    <g id="Upper-eyelid" serif:id="Upper eyelid" transform="matrix(1.882796,0,0,1.882796,-419.553252,-300.494789)">
        <path d="M264.511,474.352C268.222,470.145 303.574,442.357 321.467,429.568C337.65,418.002 354.3,406.948 371.869,397.622C390.773,387.587 416.912,375.717 434.892,369.362C449.326,364.261 464.511,360.99 479.748,359.494C496.12,357.887 517.539,358.522 533.126,359.718C546.668,360.758 560.035,363.637 573.273,366.671C589.421,370.372 614.316,377.324 630.015,381.922C642.63,385.616 655.882,390.482 667.47,394.257C678.148,397.736 690.048,401.883 699.542,404.574C707.742,406.899 715.994,409.245 724.437,410.406C733.409,411.639 752.839,410.63 753.369,411.976C753.9,413.321 735.879,417.396 727.618,418.48C719.747,419.513 711.649,419.688 703.804,418.48C691.91,416.648 672.102,411.168 656.256,407.49C636.931,403.004 610.858,395.899 587.851,391.566C564.825,387.23 539.219,382.744 518.1,381.474C499.127,380.332 479.855,380.667 461.133,383.941C442.106,387.267 419.716,395.603 403.941,401.434C391.016,406.212 378.373,413.172 366.486,418.928C355.112,424.437 343.771,430.026 332.62,435.974C321.406,441.954 310.343,448.536 299.202,454.813C287.851,461.21 260.8,478.56 264.511,474.352Z" style="stroke:black;stroke-width:0.53px;"/>
    </g>
    <g id="Lower-eyelid" serif:id="Lower eyelid" transform="matrix(1.882796,0,0,1.882796,-419.553252,-300.494789)">
        <path d="M278.515,479.189C284.182,479.092 299.598,475.597 317.764,480.307C335.931,485.017 339.071,485.017 387.291,506.996C435.511,528.976 451.884,531.891 477.228,533.91C502.571,535.928 537.11,533.91 559.763,528.976C582.415,524.042 613.814,515.07 640.504,495.782C667.193,476.494 681.995,462.589 681.995,462.589C681.995,462.589 704.199,444.198 713.843,438.142C723.487,432.087 727.618,427.054 727.618,427.054C727.618,427.054 720.992,424.98 688.948,447.113C667.193,462.14 653.116,476.774 608.26,498.08C563.866,519.168 556.293,516.789 533.601,519.49C513.087,521.931 475.263,522.224 435.736,512C398.539,502.379 356.267,481.575 336.53,471.483C316.794,461.39 306.235,465.269 298.12,468.2C290.046,471.115 276.771,479.219 278.515,479.189Z" style="stroke:black;stroke-width:0.53px;"/>
    </g>
    <g transform="matrix(1.882796,0,0,1.882796,-419.553252,-300.494789)">
        <path d="M343.01,399.266C339.988,399.659 366.221,379.941 379.013,372.007C392.08,363.901 406.658,356.354 421.416,350.63C436.777,344.673 454.298,338.715 471.178,336.262C488.057,333.809 506.397,334.685 522.692,335.912C538.28,337.085 553.746,339.987 568.95,343.621C584.72,347.391 602.475,353.508 617.31,358.531C631.016,363.171 647.273,369.118 657.961,373.759C666.111,377.297 687.807,387.718 681.44,386.375C675.074,385.031 639.154,371.715 619.763,365.699C601.68,360.089 583.778,353.35 565.095,350.28C544.127,346.834 515.742,344.322 493.956,345.023C473.86,345.67 450.517,350.381 434.382,354.485C421.393,357.788 409.26,364.012 397.144,369.645C374.275,380.278 346.031,398.872 343.01,399.266Z" style="stroke:black;stroke-width:0.53px;"/>
    </g>
    <g transform="matrix(1.882796,0,0,1.882796,-419.553252,-300.494789)">
        <path d="M696.042,466.243C695.457,466.041 680.875,478.964 673.054,485.026C665.157,491.147 657.259,497.679 648.663,502.968C638.337,509.323 622.905,517.867 611.096,523.154C600.379,527.951 586.923,531.795 577.811,534.685C570.769,536.919 563.683,539.123 556.424,540.495C547.883,542.109 536.583,543.742 526.568,544.37C515.515,545.064 499.247,544.969 490.109,544.658C483.946,544.448 477.831,543.435 471.736,542.504C465.468,541.548 458.841,540.448 452.501,538.916C444.678,537.026 431.712,533.007 424.798,531.165C420.234,529.949 408.602,526.404 411.019,527.863C413.435,529.323 429.528,536.824 439.296,539.921C449.104,543.031 460.157,544.969 469.87,546.524C479.032,547.99 488.296,549.032 497.573,549.251C508.721,549.514 524.749,549.275 536.759,548.103C547.837,547.021 558.824,544.891 569.629,542.217C581.232,539.347 595.849,534.921 606.375,530.878C615.524,527.364 624.269,522.806 632.787,517.959C641.447,513.031 651.04,506.596 658.337,501.309C664.721,496.683 670.792,491.606 676.566,486.237C682.85,480.393 696.628,466.444 696.042,466.243Z" style="stroke:black;stroke-width:0.53px;"/>
    </g>
    <g transform="matrix(2.133198,0,0,2.133198,-545.502702,-410.965252)">
        <path d="M495.865,425.63C502.379,425.685 495.609,428.317 497.725,430.624C499.828,432.918 502.935,426.697 502.988,432.753C503.006,434.719 502.19,436.5 500.901,437.789C499.612,439.079 497.831,439.877 495.865,439.877C491.934,439.877 488.742,436.685 488.742,432.753C488.742,428.822 491.934,425.597 495.865,425.63Z" style="stroke:black;stroke-width:0.47px;"/>
    </g>
    <g transform="matrix(2.846947,0,0,2.846947,-912.888875,-744.157986)">
        <path d="M502.21,417.594L503.963,426.225C507.037,426.912 509.828,428.524 511.96,430.843L520.312,428.045C520.913,428.94 521.453,429.875 521.927,430.843L515.329,436.677C516.271,439.683 516.271,442.906 515.329,445.912L521.927,451.746C521.453,452.714 520.913,453.649 520.312,454.544L511.96,451.746C509.828,454.065 507.037,455.677 503.963,456.364L502.21,464.995C501.134,465.068 500.054,465.068 498.978,464.995L497.226,456.364C494.151,455.677 491.36,454.065 489.228,451.746L480.877,454.544C480.275,453.649 479.735,452.714 479.261,451.746L485.859,445.912C484.917,442.906 484.917,439.683 485.859,436.677L479.261,430.843C479.735,429.875 480.275,428.94 480.877,428.045L489.228,430.843C491.36,428.524 494.151,426.912 497.226,426.225L498.978,417.594C500.054,417.52 501.134,417.52 502.21,417.594ZM500.594,432.98C505.183,432.98 508.909,436.706 508.909,441.294C508.909,445.883 505.183,449.609 500.594,449.609C496.005,449.609 492.28,445.883 492.28,441.294C492.28,436.706 496.005,432.98 500.594,432.98Z" style="stroke:black;stroke-width:0.35px;"/>
    </g>
    <g transform="matrix(3.935283,0,0,3.935283,-1593.497317,-1344.54954)">
        <path d="M507.88,442.258L522.225,447.903C510.574,453.935 508.982,464.517 508.982,471.817C508.982,486.232 520.685,497.936 535.101,497.936C549.516,497.936 561.22,486.232 561.22,471.817C561.22,463.777 558.375,452.644 548.606,447.908L559.84,440.152C569.587,447.768 575.284,459.448 575.284,471.817C575.284,493.995 557.278,512 535.101,512C512.923,512 494.918,493.995 494.918,471.817C494.918,460.586 499.618,449.867 507.88,442.258Z" style="stroke:black;stroke-width:0.25px;"/>
    </g>
</svg>
